# xmcd CD database file
#
# Track frame offsets:
#	150
#	20433
#	37837
#	54202
#	70562
#	87414
#	115908
#	132913
#	154251
#	176951
#	200837
#	216538
#
# Disc length: 3208 seconds
#
# Revision: 0
# Processed by: cddbd v1.5.1PL0 Copyright (c) Steve Scherf et al.
# Submitted via: CDex 1.51
#
DISCID=aa0c860c
DTITLE=Homesick James - Goin' Back Home
DYEAR=2000
DGENRE=Blues
TTITLE0=Homecoming Blues
TTITLE1=My Gal Blues
TTITLE2=Keep Your Hands To Yourself
TTITLE3=1000 Women Blues
TTITLE4=Walking The Backstreets
TTITLE5=Homesick's Contribution To Jazz
TTITLE6=Live Life Over
TTITLE7=Lonesome Train
TTITLE8=Highway 59
TTITLE9=Texas Dust
TTITLE10=Isolation Blues
TTITLE11=Weep and Moan
EXTD=YEAR: 2000
EXTT0=
EXTT1=
EXTT2=
EXTT3=
EXTT4=
EXTT5=
EXTT6=
EXTT7=
EXTT8=
EXTT9=
EXTT10=
EXTT11=
PLAYORDER=
